<svg width="235" height="21" viewBox="0 0 235 21" fill="none" xmlns="http://www.w3.org/2000/svg">
<path d="M7.728 0.0719991C12.12 0.0719991 14.712 2.664 14.712 6.216C14.712 8.256 13.728 10.008 10.296 13.56L7.488 16.464H15.096V20.16H1.104V17.664L7.512 11.064C9.864 8.64 10.416 7.368 10.416 6.264C10.416 4.824 9.624 3.864 7.728 3.864C5.952 3.864 4.992 5.304 4.992 6.792H0.696C0.696 2.952 3.6 0.0719991 7.728 0.0719991ZM24.4558 0.0719991C28.7278 0.0719991 31.9438 3.504 31.9438 10.368C31.9438 17.208 28.7278 20.64 24.4558 20.64C20.1838 20.64 16.9678 17.208 16.9678 10.368C16.9678 3.504 20.1838 0.0719991 24.4558 0.0719991ZM24.4558 3.888C22.5358 3.888 21.0958 5.904 21.0958 10.368C21.0958 14.808 22.5358 16.824 24.4558 16.824C26.3758 16.824 27.8158 14.808 27.8158 10.368C27.8158 5.904 26.3758 3.888 24.4558 3.888ZM40.6343 0.0719991C45.0262 0.0719991 47.6183 2.664 47.6183 6.216C47.6183 8.256 46.6343 10.008 43.2023 13.56L40.3943 16.464H48.0023V20.16H34.0103V17.664L40.4183 11.064C42.7703 8.64 43.3223 7.368 43.3223 6.264C43.3223 4.824 42.5303 3.864 40.6343 3.864C38.8583 3.864 37.8983 5.304 37.8983 6.792H33.6023C33.6023 2.952 36.5063 0.0719991 40.6343 0.0719991ZM57.9928 20.16V16.224H49.2088V12.624L56.7688 0.599999H62.1208V12.624H64.6888V16.224H62.1208V20.16H57.9928ZM53.3848 12.624H57.9928V5.088L53.3848 12.624ZM68.2155 15.552C69.5835 15.552 70.5915 16.584 70.5915 17.952C70.5915 19.32 69.5835 20.352 68.2155 20.352C66.8235 20.352 65.8155 19.32 65.8155 17.952C65.8155 16.584 66.8235 15.552 68.2155 15.552ZM73.4468 20.16V0.599999H80.9588C86.0468 0.599999 89.0228 3.432 89.0228 7.752C89.0228 12.12 86.0468 14.952 80.9588 14.952H77.8148V20.16H73.4468ZM77.8148 11.088H80.7668C83.1908 11.088 84.6548 9.936 84.6548 7.752C84.6548 5.592 83.1908 4.464 80.7668 4.464H77.8148V11.088ZM108.08 20.16H103.016L99.2244 13.992H95.7444V20.16H91.3764V0.599999H99.2484C104.216 0.599999 107.12 3.24 107.12 7.296C107.12 9.984 105.848 12.048 103.544 13.128L108.08 20.16ZM95.7444 4.464V10.128H99.0564C101.36 10.128 102.752 9.144 102.752 7.296C102.752 5.448 101.36 4.464 99.0564 4.464H95.7444ZM119.588 20.64C113.516 20.64 109.028 16.296 109.028 10.368C109.028 4.44 113.516 0.0959988 119.588 0.0959988C125.66 0.0959988 130.148 4.44 130.148 10.368C130.148 16.296 125.66 20.64 119.588 20.64ZM119.588 16.704C123.14 16.704 125.78 14.04 125.78 10.368C125.78 6.672 123.14 4.032 119.588 4.032C116.036 4.032 113.396 6.672 113.396 10.368C113.396 14.04 116.036 16.704 119.588 16.704ZM147.837 0.599999V4.464H141.477V20.16H137.109V4.464H130.749V0.599999H147.837ZM150.181 20.16V0.599999H164.533V4.44H154.549V8.88H163.429V12.672H154.549V20.16H150.181ZM176.635 20.64C170.563 20.64 166.075 16.296 166.075 10.368C166.075 4.44 170.563 0.0959988 176.635 0.0959988C182.707 0.0959988 187.195 4.44 187.195 10.368C187.195 16.296 182.707 20.64 176.635 20.64ZM176.635 16.704C180.187 16.704 182.827 14.04 182.827 10.368C182.827 6.672 180.187 4.032 176.635 4.032C173.083 4.032 170.443 6.672 170.443 10.368C170.443 14.04 173.083 16.704 176.635 16.704ZM189.791 0.599999H194.159V16.296H203.927V20.16H189.791V0.599999ZM206.126 0.599999H210.494V20.16H206.126V0.599999ZM223.651 20.64C217.579 20.64 213.091 16.296 213.091 10.368C213.091 4.44 217.579 0.0959988 223.651 0.0959988C229.723 0.0959988 234.211 4.44 234.211 10.368C234.211 16.296 229.723 20.64 223.651 20.64ZM223.651 16.704C227.203 16.704 229.843 14.04 229.843 10.368C229.843 6.672 227.203 4.032 223.651 4.032C220.099 4.032 217.459 6.672 217.459 10.368C217.459 14.04 220.099 16.704 223.651 16.704Z" fill="#FF6200"/>
</svg>
