<svg width="496" height="64" viewBox="0 0 496 64" fill="none" xmlns="http://www.w3.org/2000/svg">
<rect width="496" height="64" rx="32" fill="#FF6200"/>
<path d="M30 32H50" stroke="white" stroke-width="3"/>
<path d="M40 42L40 22" stroke="white" stroke-width="3"/>
<path d="M32.9287 39.0713L47.0708 24.9292" stroke="white" stroke-width="3"/>
<path d="M32.9287 24.9287L47.0708 39.0708" stroke="white" stroke-width="3"/>
<path d="M59.584 21.768V40.992H57.064V21.768H59.584ZM65.3283 23.64C65.3283 25.536 64.2003 27.072 62.3523 27.432V26.088C63.4083 25.8 63.9603 25.008 63.9603 23.784H62.5923V21H65.3283V23.64ZM68.3374 21.768H70.5454L77.9614 34.824L85.3774 21.768L87.5854 21.768V40.992H85.0654V26.808L78.8734 37.752H77.0494L70.8574 26.808V40.992H68.3374V21.768ZM98.4078 21.768H105.224C111.848 21.768 115.688 25.656 115.688 31.392C115.688 37.128 111.848 40.992 105.224 40.992H98.4078V21.768ZM105.296 38.712C110.168 38.712 113.144 36.072 113.144 31.392C113.144 26.712 110.168 24.024 105.296 24.024H100.928V38.712H105.296ZM119.009 21.768L132.665 21.768V24L121.529 24V30.048L131.825 30.048V32.28H121.529V38.76H132.881V40.992H119.009V21.768ZM143.199 21.312C147.423 21.312 150.543 23.712 150.783 27.072H148.191C147.927 25.032 146.079 23.472 143.079 23.472C140.055 23.472 138.351 24.72 138.351 26.448C138.351 28.44 140.127 29.304 144.231 30.168C148.959 31.176 150.855 33 150.855 35.856C150.855 39.312 147.471 41.424 143.199 41.424C138.711 41.424 135.471 38.976 135.207 35.256H137.799C138.063 37.584 140.151 39.24 143.367 39.24C146.247 39.24 148.287 37.92 148.287 36C148.287 33.864 146.535 33 142.359 32.112C138.015 31.2 135.807 29.64 135.807 26.448C135.807 23.256 138.951 21.312 143.199 21.312ZM156.568 21.768V40.992H154.048V21.768L156.568 21.768ZM169.897 41.424C164.017 41.424 159.817 37.176 159.817 31.368C159.817 25.56 164.017 21.312 169.897 21.312C174.793 21.312 178.465 24.168 179.473 27.84H176.737C175.945 25.416 173.233 23.616 169.945 23.616C165.505 23.616 162.337 26.856 162.337 31.368C162.337 35.904 165.505 39.168 169.993 39.168C173.929 39.168 176.857 36.576 177.145 33.096L169.489 33.096V30.912L179.833 30.912V31.776C179.833 37.44 175.513 41.424 169.897 41.424ZM183.041 21.768H185.393L197.033 36.744V21.648L199.577 21.648V40.872L197.201 40.872L185.561 25.896V40.992H183.041V21.768ZM203.689 21.768H217.345V24H206.209V30.048L216.505 30.048V32.28H206.209V38.76H217.561V40.992H203.689V21.768ZM236.422 40.992H233.446L229.078 34.152C228.718 34.176 228.358 34.2 227.998 34.2H223.318V40.992H220.798V21.768H227.998C232.846 21.768 235.702 24.192 235.702 27.984C235.702 30.696 234.238 32.712 231.598 33.648L236.422 40.992ZM227.806 31.944C231.142 31.944 233.182 30.576 233.182 27.984C233.182 25.392 231.142 24.024 227.806 24.024H223.318V31.944H227.806ZM246.862 24.936C247.798 24.936 248.518 25.68 248.518 26.616C248.518 27.552 247.798 28.296 246.862 28.296C245.902 28.296 245.182 27.552 245.182 26.616C245.182 25.68 245.902 24.936 246.862 24.936ZM246.862 34.488C247.798 34.488 248.518 35.208 248.518 36.168C248.518 37.104 247.798 37.824 246.862 37.824C245.902 37.824 245.182 37.104 245.182 36.168C245.182 35.208 245.902 34.488 246.862 34.488ZM270.888 41.16L265.416 33.696L262.752 36.768V41.16H258.384V21.6H262.752V30.816L270.576 21.6H275.928L268.248 30.456L276.336 41.16H270.888ZM278.212 21.6H282.58V41.16H278.212V21.6ZM286.041 41.16V21.6L289.521 21.6L296.265 32.544L303.009 21.6H306.489V41.16H302.121V30.432L297.585 37.944H294.945L290.409 30.432V41.16L286.041 41.16ZM316.673 41.16V21.6H320.321L330.089 33.36V21.36L334.457 21.36V40.92H330.809L321.041 29.16V41.16H316.673ZM351.252 41.16L349.884 37.368H342.3L340.932 41.16H336.42L344.004 21.6H348.54L356.124 41.16L351.252 41.16ZM343.644 33.576L348.54 33.576L346.092 26.76L343.644 33.576ZM377.822 21.6H382.19V41.16H377.822V33.216H369.182V41.16H364.814V21.6H369.182V29.352H377.822V21.6ZM403.242 21.6L395.922 35.016V41.16H391.554V35.016L384.234 21.6H389.226L393.93 30.84L398.61 21.6H403.242ZM405.291 41.16V21.6H419.835V25.392H409.659V29.376H418.995V33.168H409.659V37.368H420.051V41.16H405.291ZM432.401 41.64C426.329 41.64 421.841 37.296 421.841 31.368C421.841 25.44 426.329 21.096 432.401 21.096C438.473 21.096 442.961 25.44 442.961 31.368C442.961 37.296 438.473 41.64 432.401 41.64ZM432.401 37.704C435.953 37.704 438.593 35.04 438.593 31.368C438.593 27.672 435.953 25.032 432.401 25.032C428.849 25.032 426.209 27.672 426.209 31.368C426.209 35.04 428.849 37.704 432.401 37.704ZM445.556 41.16V21.6H449.204L458.972 33.36V21.36H463.34V40.92H459.692L449.924 29.16V41.16H445.556Z" fill="white"/>
</svg>
